<mxfile host="65bd71144e">
    <diagram id="C5RBs43oDa-KdzZeNtuy" name="Page-1">
        <mxGraphModel dx="892" dy="668" grid="1" gridSize="10" guides="1" tooltips="1" connect="1" arrows="1" fold="1" page="1" pageScale="1" pageWidth="2339" pageHeight="3300" background="#ffffff" math="0" shadow="0">
            <root>
                <mxCell id="WIyWlLk6GJQsqaUBKTNV-0"/>
                <mxCell id="WIyWlLk6GJQsqaUBKTNV-1" parent="WIyWlLk6GJQsqaUBKTNV-0"/>
                <mxCell id="nR66ydEBvoN4VzHDl8NW-1" value="" style="edgeStyle=orthogonalEdgeStyle;rounded=0;orthogonalLoop=1;jettySize=auto;html=1;fontColor=#080707;" parent="WIyWlLk6GJQsqaUBKTNV-1" source="WIyWlLk6GJQsqaUBKTNV-3" target="WIyWlLk6GJQsqaUBKTNV-6" edge="1">
                    <mxGeometry relative="1" as="geometry"/>
                </mxCell>
                <mxCell id="WIyWlLk6GJQsqaUBKTNV-3" value="Вход" style="rounded=1;whiteSpace=wrap;html=1;fontSize=12;glass=0;strokeWidth=1;shadow=0;fillColor=#fff2cc;strokeColor=#d6b656;gradientColor=#ffd966;fontColor=#080707;" parent="WIyWlLk6GJQsqaUBKTNV-1" vertex="1">
                    <mxGeometry x="30" y="63.89" width="110" height="40" as="geometry"/>
                </mxCell>
                <mxCell id="nR66ydEBvoN4VzHDl8NW-15" style="edgeStyle=orthogonalEdgeStyle;rounded=0;orthogonalLoop=1;jettySize=auto;html=1;fontColor=#080707;" parent="WIyWlLk6GJQsqaUBKTNV-1" source="WIyWlLk6GJQsqaUBKTNV-6" edge="1">
                    <mxGeometry relative="1" as="geometry">
                        <mxPoint x="340" y="84" as="targetPoint"/>
                    </mxGeometry>
                </mxCell>
                <mxCell id="WIyWlLk6GJQsqaUBKTNV-6" value="Корректные&lt;br&gt;реквизиты?" style="rhombus;whiteSpace=wrap;html=1;shadow=0;fontFamily=Helvetica;fontSize=12;align=center;strokeWidth=1;spacing=6;spacingTop=-4;gradientColor=#ea6b66;fillColor=#f8cecc;strokeColor=#b85450;fontColor=#080707;" parent="WIyWlLk6GJQsqaUBKTNV-1" vertex="1">
                    <mxGeometry x="180" y="43.89" width="120" height="80" as="geometry"/>
                </mxCell>
                <mxCell id="WIyWlLk6GJQsqaUBKTNV-7" value="" style="rounded=1;whiteSpace=wrap;html=1;fontSize=12;glass=0;strokeWidth=1;shadow=0;gradientColor=#b3b3b3;fillColor=#f5f5f5;strokeColor=#666666;fontColor=#080707;" parent="WIyWlLk6GJQsqaUBKTNV-1" vertex="1">
                    <mxGeometry x="340" y="30" width="290" height="270" as="geometry"/>
                </mxCell>
                <mxCell id="nR66ydEBvoN4VzHDl8NW-11" value="" style="edgeStyle=orthogonalEdgeStyle;rounded=0;orthogonalLoop=1;jettySize=auto;html=1;fontColor=#080707;" parent="WIyWlLk6GJQsqaUBKTNV-1" source="nR66ydEBvoN4VzHDl8NW-3" target="nR66ydEBvoN4VzHDl8NW-10" edge="1">
                    <mxGeometry relative="1" as="geometry"/>
                </mxCell>
                <mxCell id="nR66ydEBvoN4VzHDl8NW-3" value="Вычислить&lt;br&gt;баланс" style="rounded=0;whiteSpace=wrap;html=1;gradientColor=#97d077;fillColor=#d5e8d4;strokeColor=#82b366;fontColor=#080707;" parent="WIyWlLk6GJQsqaUBKTNV-1" vertex="1">
                    <mxGeometry x="360" y="53.89" width="100" height="46.11" as="geometry"/>
                </mxCell>
                <mxCell id="nR66ydEBvoN4VzHDl8NW-13" value="" style="edgeStyle=orthogonalEdgeStyle;rounded=0;orthogonalLoop=1;jettySize=auto;html=1;fontColor=#080707;" parent="WIyWlLk6GJQsqaUBKTNV-1" source="nR66ydEBvoN4VzHDl8NW-4" target="nR66ydEBvoN4VzHDl8NW-12" edge="1">
                    <mxGeometry relative="1" as="geometry"/>
                </mxCell>
                <mxCell id="nR66ydEBvoN4VzHDl8NW-4" value="Вычислить&lt;br&gt;итого" style="rounded=0;whiteSpace=wrap;html=1;gradientColor=#97d077;fillColor=#d5e8d4;strokeColor=#82b366;fontColor=#080707;" parent="WIyWlLk6GJQsqaUBKTNV-1" vertex="1">
                    <mxGeometry x="360" y="110" width="100" height="46.11" as="geometry"/>
                </mxCell>
                <mxCell id="nR66ydEBvoN4VzHDl8NW-5" value="Отобразить&lt;br&gt;транзакции" style="rounded=0;whiteSpace=wrap;html=1;gradientColor=#97d077;fillColor=#d5e8d4;strokeColor=#82b366;fontColor=#080707;" parent="WIyWlLk6GJQsqaUBKTNV-1" vertex="1">
                    <mxGeometry x="360" y="170" width="100" height="46.11" as="geometry"/>
                </mxCell>
                <mxCell id="nR66ydEBvoN4VzHDl8NW-9" value="Запустить&lt;br&gt;таймер выхода" style="rounded=0;whiteSpace=wrap;html=1;gradientColor=#97d077;fillColor=#d5e8d4;strokeColor=#82b366;fontColor=#080707;" parent="WIyWlLk6GJQsqaUBKTNV-1" vertex="1">
                    <mxGeometry x="360" y="230" width="100" height="46.11" as="geometry"/>
                </mxCell>
                <mxCell id="nR66ydEBvoN4VzHDl8NW-10" value="Отобразить&lt;br&gt;баланс" style="rounded=0;whiteSpace=wrap;html=1;gradientColor=#97d077;fillColor=#d5e8d4;strokeColor=#82b366;fontColor=#080707;" parent="WIyWlLk6GJQsqaUBKTNV-1" vertex="1">
                    <mxGeometry x="510" y="53.89" width="100" height="46.11" as="geometry"/>
                </mxCell>
                <mxCell id="nR66ydEBvoN4VzHDl8NW-12" value="Отобразить&lt;br&gt;итого" style="rounded=0;whiteSpace=wrap;html=1;gradientColor=#97d077;fillColor=#d5e8d4;strokeColor=#82b366;fontColor=#080707;" parent="WIyWlLk6GJQsqaUBKTNV-1" vertex="1">
                    <mxGeometry x="510" y="110" width="100" height="46.11" as="geometry"/>
                </mxCell>
                <mxCell id="nR66ydEBvoN4VzHDl8NW-18" value="" style="edgeStyle=orthogonalEdgeStyle;rounded=0;orthogonalLoop=1;jettySize=auto;html=1;fontColor=#080808;" parent="WIyWlLk6GJQsqaUBKTNV-1" source="nR66ydEBvoN4VzHDl8NW-19" target="nR66ydEBvoN4VzHDl8NW-20" edge="1">
                    <mxGeometry relative="1" as="geometry"/>
                </mxCell>
                <mxCell id="nR66ydEBvoN4VzHDl8NW-19" value="Запрос&lt;br&gt;займа" style="rounded=1;whiteSpace=wrap;html=1;fontSize=12;glass=0;strokeWidth=1;shadow=0;fillColor=#fff2cc;strokeColor=#d6b656;gradientColor=#ffd966;fontColor=#080707;" parent="WIyWlLk6GJQsqaUBKTNV-1" vertex="1">
                    <mxGeometry x="30" y="470" width="110" height="40" as="geometry"/>
                </mxCell>
                <mxCell id="nR66ydEBvoN4VzHDl8NW-30" value="" style="edgeStyle=orthogonalEdgeStyle;rounded=0;orthogonalLoop=1;jettySize=auto;html=1;fontSize=18;fontColor=#080808;" parent="WIyWlLk6GJQsqaUBKTNV-1" source="nR66ydEBvoN4VzHDl8NW-20" target="nR66ydEBvoN4VzHDl8NW-29" edge="1">
                    <mxGeometry relative="1" as="geometry"/>
                </mxCell>
                <mxCell id="nR66ydEBvoN4VzHDl8NW-20" value="Один из&lt;br&gt;&amp;nbsp;депозитов больше 10% запроса?" style="rhombus;whiteSpace=wrap;html=1;shadow=0;fontFamily=Helvetica;fontSize=12;align=center;strokeWidth=1;spacing=6;spacingTop=-4;gradientColor=#ea6b66;fillColor=#f8cecc;strokeColor=#b85450;fontColor=#080808;" parent="WIyWlLk6GJQsqaUBKTNV-1" vertex="1">
                    <mxGeometry x="170" y="440" width="130" height="100" as="geometry"/>
                </mxCell>
                <mxCell id="nR66ydEBvoN4VzHDl8NW-21" value="" style="edgeStyle=orthogonalEdgeStyle;rounded=0;orthogonalLoop=1;jettySize=auto;html=1;fontColor=#080808;" parent="WIyWlLk6GJQsqaUBKTNV-1" source="nR66ydEBvoN4VzHDl8NW-22" edge="1">
                    <mxGeometry relative="1" as="geometry">
                        <mxPoint x="180" y="370" as="targetPoint"/>
                    </mxGeometry>
                </mxCell>
                <mxCell id="nR66ydEBvoN4VzHDl8NW-22" value="Перевод&lt;br&gt;денег" style="rounded=1;whiteSpace=wrap;html=1;fontSize=12;glass=0;strokeWidth=1;shadow=0;fillColor=#fff2cc;strokeColor=#d6b656;gradientColor=#ffd966;fontColor=#080707;" parent="WIyWlLk6GJQsqaUBKTNV-1" vertex="1">
                    <mxGeometry x="30" y="350" width="110" height="40" as="geometry"/>
                </mxCell>
                <mxCell id="nR66ydEBvoN4VzHDl8NW-24" value="Обновить UI" style="text;html=1;strokeColor=none;fillColor=none;align=center;verticalAlign=middle;whiteSpace=wrap;rounded=0;fontStyle=1;fontSize=18;fontColor=#080707;" parent="WIyWlLk6GJQsqaUBKTNV-1" vertex="1">
                    <mxGeometry x="490" y="210" width="120" height="43.89" as="geometry"/>
                </mxCell>
                <mxCell id="nR66ydEBvoN4VzHDl8NW-27" value="" style="edgeStyle=orthogonalEdgeStyle;rounded=0;orthogonalLoop=1;jettySize=auto;html=1;fontSize=18;fontColor=#080808;" parent="WIyWlLk6GJQsqaUBKTNV-1" source="nR66ydEBvoN4VzHDl8NW-25" target="nR66ydEBvoN4VzHDl8NW-26" edge="1">
                    <mxGeometry relative="1" as="geometry"/>
                </mxCell>
                <mxCell id="nR66ydEBvoN4VzHDl8NW-25" value="Добавить&lt;br&gt;&lt;b&gt;отрицательную&lt;/b&gt;&lt;br&gt;транзакцию&lt;br&gt;текущему&lt;br&gt;пользователю" style="rounded=0;whiteSpace=wrap;html=1;gradientColor=#97d077;fillColor=#d5e8d4;strokeColor=#82b366;fontColor=#080808;" parent="WIyWlLk6GJQsqaUBKTNV-1" vertex="1">
                    <mxGeometry x="180" y="330" width="110" height="80" as="geometry"/>
                </mxCell>
                <mxCell id="nR66ydEBvoN4VzHDl8NW-28" style="edgeStyle=orthogonalEdgeStyle;rounded=0;orthogonalLoop=1;jettySize=auto;html=1;fontSize=18;fontColor=#080808;" parent="WIyWlLk6GJQsqaUBKTNV-1" source="nR66ydEBvoN4VzHDl8NW-26" edge="1">
                    <mxGeometry relative="1" as="geometry">
                        <mxPoint x="460" y="300" as="targetPoint"/>
                    </mxGeometry>
                </mxCell>
                <mxCell id="nR66ydEBvoN4VzHDl8NW-26" value="Добавить&lt;br&gt;&lt;b&gt;положительную&lt;/b&gt;&lt;br&gt;транзакцию&lt;br&gt;получателю" style="rounded=0;whiteSpace=wrap;html=1;gradientColor=#97d077;fillColor=#d5e8d4;strokeColor=#82b366;fontColor=#080808;" parent="WIyWlLk6GJQsqaUBKTNV-1" vertex="1">
                    <mxGeometry x="330" y="330" width="110" height="80" as="geometry"/>
                </mxCell>
                <mxCell id="nR66ydEBvoN4VzHDl8NW-31" style="edgeStyle=orthogonalEdgeStyle;rounded=0;orthogonalLoop=1;jettySize=auto;html=1;fontSize=18;fontColor=#080808;" parent="WIyWlLk6GJQsqaUBKTNV-1" source="nR66ydEBvoN4VzHDl8NW-29" edge="1">
                    <mxGeometry relative="1" as="geometry">
                        <mxPoint x="480" y="300" as="targetPoint"/>
                    </mxGeometry>
                </mxCell>
                <mxCell id="nR66ydEBvoN4VzHDl8NW-29" value="Добавить&lt;br&gt;&lt;b&gt;положительную&lt;/b&gt;&lt;br&gt;транзакцию&lt;br&gt;текущему&lt;br&gt;пользователю" style="rounded=0;whiteSpace=wrap;html=1;gradientColor=#97d077;fillColor=#d5e8d4;strokeColor=#82b366;fontColor=#080808;" parent="WIyWlLk6GJQsqaUBKTNV-1" vertex="1">
                    <mxGeometry x="330" y="450" width="110" height="80" as="geometry"/>
                </mxCell>
                <mxCell id="iTFdo5rkAG819LW_KxMl-0" value="" style="edgeStyle=orthogonalEdgeStyle;rounded=0;orthogonalLoop=1;jettySize=auto;html=1;fontColor=#080808;" parent="WIyWlLk6GJQsqaUBKTNV-1" source="iTFdo5rkAG819LW_KxMl-1" edge="1">
                    <mxGeometry relative="1" as="geometry">
                        <mxPoint x="170" y="620" as="targetPoint"/>
                    </mxGeometry>
                </mxCell>
                <mxCell id="iTFdo5rkAG819LW_KxMl-1" value="Закрыть&lt;br&gt;счёт" style="rounded=1;whiteSpace=wrap;html=1;fontSize=12;glass=0;strokeWidth=1;shadow=0;fillColor=#fff2cc;strokeColor=#d6b656;gradientColor=#ffd966;" parent="WIyWlLk6GJQsqaUBKTNV-1" vertex="1">
                    <mxGeometry x="30" y="600" width="110" height="40" as="geometry"/>
                </mxCell>
                <mxCell id="iTFdo5rkAG819LW_KxMl-2" value="" style="edgeStyle=orthogonalEdgeStyle;rounded=0;orthogonalLoop=1;jettySize=auto;html=1;fontSize=18;fontColor=#080808;" parent="WIyWlLk6GJQsqaUBKTNV-1" target="iTFdo5rkAG819LW_KxMl-3" edge="1">
                    <mxGeometry relative="1" as="geometry">
                        <mxPoint x="300" y="620" as="sourcePoint"/>
                    </mxGeometry>
                </mxCell>
                <mxCell id="iTFdo5rkAG819LW_KxMl-6" value="" style="edgeStyle=orthogonalEdgeStyle;rounded=0;orthogonalLoop=1;jettySize=auto;html=1;fontSize=18;fontColor=#080808;" parent="WIyWlLk6GJQsqaUBKTNV-1" source="iTFdo5rkAG819LW_KxMl-3" target="iTFdo5rkAG819LW_KxMl-5" edge="1">
                    <mxGeometry relative="1" as="geometry"/>
                </mxCell>
                <mxCell id="iTFdo5rkAG819LW_KxMl-3" value="Удалить пользователя&lt;br&gt;из данных" style="rounded=0;whiteSpace=wrap;html=1;gradientColor=#97d077;fillColor=#d5e8d4;strokeColor=#82b366;fontColor=#080808;" parent="WIyWlLk6GJQsqaUBKTNV-1" vertex="1">
                    <mxGeometry x="330" y="590" width="110" height="60" as="geometry"/>
                </mxCell>
                <mxCell id="iTFdo5rkAG819LW_KxMl-4" value="Корректные&lt;br&gt;реквизиты?" style="rhombus;whiteSpace=wrap;html=1;shadow=0;fontFamily=Helvetica;fontSize=12;align=center;strokeWidth=1;spacing=6;spacingTop=-4;gradientColor=#ea6b66;fillColor=#f8cecc;strokeColor=#b85450;" parent="WIyWlLk6GJQsqaUBKTNV-1" vertex="1">
                    <mxGeometry x="170" y="570" width="130" height="100" as="geometry"/>
                </mxCell>
                <mxCell id="iTFdo5rkAG819LW_KxMl-5" value="Выйти из приложения&lt;br&gt;(спрятать UI)" style="rounded=0;whiteSpace=wrap;html=1;gradientColor=#97d077;fillColor=#d5e8d4;strokeColor=#82b366;fontColor=#080808;" parent="WIyWlLk6GJQsqaUBKTNV-1" vertex="1">
                    <mxGeometry x="470" y="590" width="110" height="60" as="geometry"/>
                </mxCell>
                <mxCell id="iTFdo5rkAG819LW_KxMl-12" value="" style="edgeStyle=orthogonalEdgeStyle;rounded=0;orthogonalLoop=1;jettySize=auto;html=1;fontColor=#080808;" parent="WIyWlLk6GJQsqaUBKTNV-1" source="iTFdo5rkAG819LW_KxMl-13" target="iTFdo5rkAG819LW_KxMl-15" edge="1">
                    <mxGeometry relative="1" as="geometry"/>
                </mxCell>
                <mxCell id="iTFdo5rkAG819LW_KxMl-13" value="Сортировка транзакций" style="rounded=1;whiteSpace=wrap;html=1;fontSize=12;glass=0;strokeWidth=1;shadow=0;fillColor=#fff2cc;strokeColor=#d6b656;gradientColor=#ffd966;fontColor=#080808;" parent="WIyWlLk6GJQsqaUBKTNV-1" vertex="1">
                    <mxGeometry x="500" y="470" width="110" height="40" as="geometry"/>
                </mxCell>
                <mxCell id="iTFdo5rkAG819LW_KxMl-14" value="" style="edgeStyle=orthogonalEdgeStyle;rounded=0;orthogonalLoop=1;jettySize=auto;html=1;fontSize=18;fontColor=#080808;" parent="WIyWlLk6GJQsqaUBKTNV-1" source="iTFdo5rkAG819LW_KxMl-15" target="iTFdo5rkAG819LW_KxMl-16" edge="1">
                    <mxGeometry relative="1" as="geometry"/>
                </mxCell>
                <mxCell id="iTFdo5rkAG819LW_KxMl-17" style="edgeStyle=orthogonalEdgeStyle;rounded=0;orthogonalLoop=1;jettySize=auto;html=1;fontSize=18;" parent="WIyWlLk6GJQsqaUBKTNV-1" source="iTFdo5rkAG819LW_KxMl-15" edge="1">
                    <mxGeometry relative="1" as="geometry">
                        <mxPoint x="700" y="193" as="targetPoint"/>
                        <Array as="points">
                            <mxPoint x="810" y="490"/>
                            <mxPoint x="810" y="193"/>
                        </Array>
                    </mxGeometry>
                </mxCell>
                <mxCell id="iTFdo5rkAG819LW_KxMl-15" value="Уже отсортированы?" style="rhombus;whiteSpace=wrap;html=1;shadow=0;fontFamily=Helvetica;fontSize=12;align=center;strokeWidth=1;spacing=6;spacingTop=-4;gradientColor=#ea6b66;fillColor=#f8cecc;strokeColor=#b85450;fontColor=#080808;" parent="WIyWlLk6GJQsqaUBKTNV-1" vertex="1">
                    <mxGeometry x="640" y="440" width="130" height="100" as="geometry"/>
                </mxCell>
                <mxCell id="iTFdo5rkAG819LW_KxMl-20" style="edgeStyle=orthogonalEdgeStyle;rounded=0;orthogonalLoop=1;jettySize=auto;html=1;fontSize=14;entryX=1;entryY=0.5;entryDx=0;entryDy=0;exitX=0.5;exitY=0;exitDx=0;exitDy=0;fontColor=#080707;" parent="WIyWlLk6GJQsqaUBKTNV-1" source="iTFdo5rkAG819LW_KxMl-16" target="nR66ydEBvoN4VzHDl8NW-5" edge="1">
                    <mxGeometry relative="1" as="geometry">
                        <mxPoint x="705" y="190" as="targetPoint"/>
                    </mxGeometry>
                </mxCell>
                <mxCell id="iTFdo5rkAG819LW_KxMl-16" value="Отсортировать транзакций" style="rounded=0;whiteSpace=wrap;html=1;gradientColor=#97d077;fillColor=#d5e8d4;strokeColor=#82b366;fontColor=#080808;" parent="WIyWlLk6GJQsqaUBKTNV-1" vertex="1">
                    <mxGeometry x="650" y="360" width="110" height="50" as="geometry"/>
                </mxCell>
                <mxCell id="iTFdo5rkAG819LW_KxMl-18" value="Да" style="text;html=1;strokeColor=none;fillColor=none;align=center;verticalAlign=middle;whiteSpace=wrap;rounded=0;fontSize=14;fontColor=#080808;" parent="WIyWlLk6GJQsqaUBKTNV-1" vertex="1">
                    <mxGeometry x="760" y="460" width="40" height="20" as="geometry"/>
                </mxCell>
                <mxCell id="iTFdo5rkAG819LW_KxMl-19" value="Нет" style="text;html=1;strokeColor=none;fillColor=none;align=center;verticalAlign=middle;whiteSpace=wrap;rounded=0;fontSize=14;fontColor=#080808;" parent="WIyWlLk6GJQsqaUBKTNV-1" vertex="1">
                    <mxGeometry x="710" y="424" width="40" height="20" as="geometry"/>
                </mxCell>
                <mxCell id="iTFdo5rkAG819LW_KxMl-22" value="" style="edgeStyle=orthogonalEdgeStyle;rounded=0;orthogonalLoop=1;jettySize=auto;html=1;fontSize=14;fontColor=#080808;" parent="WIyWlLk6GJQsqaUBKTNV-1" source="iTFdo5rkAG819LW_KxMl-21" target="iTFdo5rkAG819LW_KxMl-5" edge="1">
                    <mxGeometry relative="1" as="geometry"/>
                </mxCell>
                <mxCell id="iTFdo5rkAG819LW_KxMl-21" value="Таймер выхода истёк?" style="rounded=1;whiteSpace=wrap;html=1;fontSize=12;glass=0;strokeWidth=1;shadow=0;fillColor=#fff2cc;strokeColor=#d6b656;gradientColor=#ffd966;fontColor=#080808;" parent="WIyWlLk6GJQsqaUBKTNV-1" vertex="1">
                    <mxGeometry x="650" y="600" width="110" height="40" as="geometry"/>
                </mxCell>
            </root>
        </mxGraphModel>
    </diagram>
</mxfile>